<svg width="408" height="398" viewBox="0 0 408 398" fill="none" xmlns="http://www.w3.org/2000/svg">
<g id="Frame 1" clip-path="url(#clip0_4_2)">
<rect width="408" height="398" fill="white"/>
<path id="DBlueD" d="M44.1416 198.565L57.8254 174.904C59.3547 172.259 63.1641 172.236 64.7258 174.861L78.801 198.523C79.5414 199.768 79.5511 201.316 78.8264 202.57L64.7516 226.923C63.2008 229.606 59.3193 229.583 57.8012 226.881L44.117 202.527C43.4246 201.295 43.434 199.789 44.1416 198.565Z" fill="#12274B"/>
<path id="LBlueD" d="M87.3922 203.771L114.726 203.791C117.781 203.793 119.706 207.08 118.213 209.746L104.758 233.766C104.05 235.03 102.715 235.812 101.266 235.811L73.1386 235.799C70.0394 235.798 68.1191 232.424 69.6999 229.759L83.9488 205.731C84.6697 204.515 85.9788 203.77 87.3922 203.771Z" fill="#479DA5"/>
<path id="GreenD" d="M105.751 169.206L119.4 192.887C120.926 195.534 119.041 198.845 115.987 198.885L88.4571 199.243C87.0089 199.262 85.6637 198.496 84.9401 197.242L70.887 172.876C69.3386 170.191 71.2997 166.842 74.3987 166.878L102.332 167.204C103.745 167.22 105.045 167.981 105.751 169.206Z" fill="#9EC059"/>
<g id="LogoText">
<g id="ConerE3">
<path d="M355.69 211.95C348.98 211.95 345.869 207.436 345.503 200.665C351.664 200.36 356.727 200.055 361.973 198.896C361.912 192.003 358.618 187.672 352.762 187.672C346.723 187.672 340.806 193.589 340.806 202.617C340.806 211.584 346.174 215.732 352.64 215.732C356.91 215.732 360.204 213.353 361.973 210.669L361.912 210.547C361.18 211.035 358.679 211.95 355.69 211.95ZM350.81 190.295C354.775 190.295 356.605 193.65 356.605 196.944C353.616 198.286 349.285 198.957 345.503 199.445C345.503 195.663 347.15 192.003 348.37 190.6C349.163 190.356 350.078 190.295 350.81 190.295Z" fill="#12284A"/>
<path d="M345.503 200.665L345.454 199.666L344.45 199.716L344.504 200.719L345.503 200.665ZM361.973 198.896L362.189 199.872L362.98 199.698L362.973 198.887L361.973 198.896ZM361.973 210.669L362.808 211.219L363.125 210.738L362.867 210.222L361.973 210.669ZM361.912 210.547L362.806 210.1L362.3 209.087L361.357 209.715L361.912 210.547ZM356.605 196.944L357.015 197.856L357.605 197.591V196.944H356.605ZM345.503 199.445H344.503V200.582L345.631 200.437L345.503 199.445ZM348.37 190.6L348.076 189.644L347.803 189.728L347.615 189.944L348.37 190.6ZM355.69 210.95C352.58 210.95 350.425 209.916 348.983 208.203C347.511 206.454 346.678 203.875 346.502 200.611L344.504 200.719C344.694 204.226 345.6 207.289 347.452 209.491C349.335 211.727 352.09 212.95 355.69 212.95V210.95ZM345.552 201.664C351.708 201.359 356.85 201.052 362.189 199.872L361.757 197.92C356.604 199.058 351.62 199.361 345.454 199.666L345.552 201.664ZM362.973 198.887C362.941 195.298 362.068 192.247 360.32 190.073C358.548 187.868 355.961 186.672 352.762 186.672V188.672C355.419 188.672 357.407 189.641 358.761 191.326C360.139 193.04 360.944 195.601 360.973 198.905L362.973 198.887ZM352.762 186.672C346.031 186.672 339.806 193.187 339.806 202.617H341.806C341.806 193.991 347.415 188.672 352.762 188.672V186.672ZM339.806 202.617C339.806 207.303 341.213 210.858 343.59 213.243C345.962 215.624 349.194 216.732 352.64 216.732V214.732C349.62 214.732 346.935 213.766 345.007 211.831C343.083 209.9 341.806 206.898 341.806 202.617H339.806ZM352.64 216.732C357.302 216.732 360.887 214.134 362.808 211.219L361.138 210.119C359.521 212.572 356.518 214.732 352.64 214.732V216.732ZM362.867 210.222L362.806 210.1L361.018 210.994L361.079 211.116L362.867 210.222ZM361.357 209.715C361.123 209.871 360.436 210.187 359.391 210.465C358.371 210.736 357.086 210.95 355.69 210.95V212.95C357.283 212.95 358.743 212.707 359.904 212.398C361.039 212.096 361.969 211.711 362.467 211.379L361.357 209.715ZM350.81 191.295C352.472 191.295 353.63 191.982 354.399 192.99C355.192 194.031 355.605 195.466 355.605 196.944H357.605C357.605 195.128 357.103 193.239 355.99 191.778C354.852 190.286 353.113 189.295 350.81 189.295V191.295ZM356.195 196.032C353.363 197.303 349.18 197.962 345.375 198.453L345.631 200.437C349.39 199.952 353.869 199.269 357.015 197.856L356.195 196.032ZM346.503 199.445C346.503 197.693 346.886 195.948 347.42 194.47C347.959 192.977 348.622 191.834 349.125 191.256L347.615 189.944C346.898 190.769 346.128 192.158 345.538 193.791C344.943 195.439 344.503 197.415 344.503 199.445H346.503ZM348.664 191.556C349.317 191.355 350.116 191.295 350.81 191.295V189.295C350.04 189.295 349.009 189.357 348.076 189.644L348.664 191.556Z" fill="#12284A"/>
</g>
<g id="ConerE2">
<path d="M328.69 211.95C321.98 211.95 318.869 207.436 318.503 200.665C324.664 200.36 329.727 200.055 334.973 198.896C334.912 192.003 331.618 187.672 325.762 187.672C319.723 187.672 313.806 193.589 313.806 202.617C313.806 211.584 319.174 215.732 325.64 215.732C329.91 215.732 333.204 213.353 334.973 210.669L334.912 210.547C334.18 211.035 331.679 211.95 328.69 211.95ZM323.81 190.295C327.775 190.295 329.605 193.65 329.605 196.944C326.616 198.286 322.285 198.957 318.503 199.445C318.503 195.663 320.15 192.003 321.37 190.6C322.163 190.356 323.078 190.295 323.81 190.295Z" fill="#12284A"/>
<path d="M318.503 200.665L318.454 199.666L317.45 199.716L317.504 200.719L318.503 200.665ZM334.973 198.896L335.189 199.872L335.98 199.698L335.973 198.887L334.973 198.896ZM334.973 210.669L335.808 211.219L336.125 210.738L335.867 210.222L334.973 210.669ZM334.912 210.547L335.806 210.1L335.3 209.087L334.357 209.715L334.912 210.547ZM329.605 196.944L330.015 197.856L330.605 197.591V196.944H329.605ZM318.503 199.445H317.503V200.582L318.631 200.437L318.503 199.445ZM321.37 190.6L321.076 189.644L320.803 189.728L320.615 189.944L321.37 190.6ZM328.69 210.95C325.58 210.95 323.425 209.916 321.983 208.203C320.511 206.454 319.678 203.875 319.502 200.611L317.504 200.719C317.694 204.226 318.6 207.289 320.452 209.491C322.335 211.727 325.09 212.95 328.69 212.95V210.95ZM318.552 201.664C324.708 201.359 329.85 201.052 335.189 199.872L334.757 197.92C329.604 199.058 324.62 199.361 318.454 199.666L318.552 201.664ZM335.973 198.887C335.941 195.298 335.068 192.247 333.32 190.073C331.548 187.868 328.961 186.672 325.762 186.672V188.672C328.419 188.672 330.407 189.641 331.761 191.326C333.139 193.04 333.944 195.601 333.973 198.905L335.973 198.887ZM325.762 186.672C319.031 186.672 312.806 193.187 312.806 202.617H314.806C314.806 193.991 320.415 188.672 325.762 188.672V186.672ZM312.806 202.617C312.806 207.303 314.213 210.858 316.59 213.243C318.962 215.624 322.194 216.732 325.64 216.732V214.732C322.62 214.732 319.935 213.766 318.007 211.831C316.083 209.9 314.806 206.898 314.806 202.617H312.806ZM325.64 216.732C330.302 216.732 333.887 214.134 335.808 211.219L334.138 210.119C332.521 212.572 329.518 214.732 325.64 214.732V216.732ZM335.867 210.222L335.806 210.1L334.018 210.994L334.079 211.116L335.867 210.222ZM334.357 209.715C334.123 209.871 333.436 210.187 332.391 210.465C331.371 210.736 330.086 210.95 328.69 210.95V212.95C330.283 212.95 331.743 212.707 332.904 212.398C334.039 212.096 334.969 211.711 335.467 211.379L334.357 209.715ZM323.81 191.295C325.472 191.295 326.63 191.982 327.399 192.99C328.192 194.031 328.605 195.466 328.605 196.944H330.605C330.605 195.128 330.103 193.239 328.99 191.778C327.852 190.286 326.113 189.295 323.81 189.295V191.295ZM329.195 196.032C326.363 197.303 322.18 197.962 318.375 198.453L318.631 200.437C322.39 199.952 326.869 199.269 330.015 197.856L329.195 196.032ZM319.503 199.445C319.503 197.693 319.886 195.948 320.42 194.47C320.959 192.977 321.622 191.834 322.125 191.256L320.615 189.944C319.898 190.769 319.128 192.158 318.538 193.791C317.943 195.439 317.503 197.415 317.503 199.445H319.503ZM321.664 191.556C322.317 191.355 323.116 191.295 323.81 191.295V189.295C323.04 189.295 322.009 189.357 321.076 189.644L321.664 191.556Z" fill="#12284A"/>
</g>
<g id="ConerG">
<path d="M309.657 189.075V188.526C308.803 188.587 308.62 188.587 308.132 188.587C301.239 188.587 300.08 187.672 296.725 187.672C291.235 187.672 286.355 190.966 286.355 197.676C286.355 201.58 288.185 204.142 290.564 205.606L285.379 210.73C285.623 213.597 287.636 216.159 292.577 216.159H299.226C304.289 216.159 305.387 218.172 305.387 220.368C305.387 222.381 304.899 223.784 303.801 225.492C301.727 226.468 300.08 226.895 297.945 226.895C292.943 226.895 289.527 223.784 288.673 218.172L284.586 221.649C285.806 226.102 290.076 229.152 295.993 229.152C304.106 229.152 309.047 223.052 309.047 217.684C309.047 214.512 306.851 211.889 300.934 211.889H294.041C290.991 211.889 289.832 211.035 289.832 209.205C289.832 207.924 290.503 207.07 291.296 206.033C292.943 206.948 294.773 207.314 296.42 207.314C301.056 207.314 306.363 204.386 306.363 197.066C306.363 194.077 305.326 192.674 305.326 191.393C305.326 190.112 306.729 189.685 309.657 189.075ZM300.69 204.142C299.958 204.569 298.921 204.813 298.006 204.813C293.126 204.752 291.174 201.153 291.174 195.602C291.174 194.443 291.601 192.369 292.455 190.722C293.309 190.356 294.163 190.173 295.2 190.173C299.165 190.173 301.849 193.65 301.849 198.774C301.849 200.665 301.605 202.739 300.69 204.142Z" fill="#12284A"/>
<path d="M309.657 189.075L309.861 190.054L310.657 189.888V189.075H309.657ZM309.657 188.526H310.657V187.452L309.586 187.529L309.657 188.526ZM290.564 205.606L291.267 206.317L292.173 205.422L291.088 204.754L290.564 205.606ZM285.379 210.73L284.676 210.019L284.343 210.348L284.383 210.815L285.379 210.73ZM303.801 225.492L304.227 226.397L304.487 226.274L304.642 226.033L303.801 225.492ZM288.673 218.172L289.662 218.022L289.392 216.248L288.025 217.41L288.673 218.172ZM284.586 221.649L283.938 220.887L283.453 221.3L283.622 221.913L284.586 221.649ZM291.296 206.033L291.782 205.159L291.026 204.739L290.502 205.426L291.296 206.033ZM300.69 204.142L301.194 205.006L301.398 204.887L301.528 204.688L300.69 204.142ZM298.006 204.813L297.994 205.813H298.006V204.813ZM292.455 190.722L292.061 189.803L291.732 189.944L291.567 190.262L292.455 190.722ZM310.657 189.075V188.526H308.657V189.075H310.657ZM309.586 187.529C308.755 187.588 308.596 187.587 308.132 187.587V189.587C308.644 189.587 308.851 189.586 309.728 189.523L309.586 187.529ZM308.132 187.587C304.738 187.587 302.774 187.362 301.246 187.14C299.72 186.918 298.495 186.672 296.725 186.672V188.672C298.31 188.672 299.342 188.884 300.958 189.119C302.571 189.354 304.633 189.587 308.132 189.587V187.587ZM296.725 186.672C293.789 186.672 290.947 187.553 288.824 189.404C286.681 191.273 285.355 194.058 285.355 197.676H287.355C287.355 194.584 288.469 192.367 290.138 190.911C291.828 189.438 294.171 188.672 296.725 188.672V186.672ZM285.355 197.676C285.355 201.946 287.382 204.822 290.04 206.458L291.088 204.754C288.988 203.462 287.355 201.214 287.355 197.676H285.355ZM289.861 204.895L284.676 210.019L286.082 211.441L291.267 206.317L289.861 204.895ZM284.383 210.815C284.522 212.457 285.178 214.075 286.561 215.275C287.941 216.472 289.936 217.159 292.577 217.159V215.159C290.277 215.159 288.795 214.565 287.872 213.764C286.953 212.967 286.48 211.87 286.375 210.645L284.383 210.815ZM292.577 217.159H299.226V215.159H292.577V217.159ZM299.226 217.159C301.657 217.159 302.911 217.648 303.554 218.199C304.158 218.717 304.387 219.434 304.387 220.368H306.387C306.387 219.106 306.067 217.718 304.856 216.681C303.684 215.677 301.858 215.159 299.226 215.159V217.159ZM304.387 220.368C304.387 222.16 303.971 223.378 302.96 224.951L304.642 226.033C305.827 224.19 306.387 222.602 306.387 220.368H304.387ZM303.375 224.587C301.41 225.512 299.908 225.895 297.945 225.895V227.895C300.252 227.895 302.045 227.424 304.227 226.397L303.375 224.587ZM297.945 225.895C295.661 225.895 293.811 225.19 292.436 223.907C291.052 222.616 290.063 220.661 289.662 218.022L287.684 218.322C288.137 221.295 289.283 223.702 291.071 225.369C292.868 227.045 295.227 227.895 297.945 227.895V225.895ZM288.025 217.41L283.938 220.887L285.234 222.411L289.321 218.934L288.025 217.41ZM283.622 221.913C284.986 226.893 289.729 230.152 295.993 230.152V228.152C290.423 228.152 286.626 225.311 285.55 221.385L283.622 221.913ZM295.993 230.152C304.636 230.152 310.047 223.627 310.047 217.684H308.047C308.047 222.477 303.576 228.152 295.993 228.152V230.152ZM310.047 217.684C310.047 215.853 309.403 214.097 307.842 212.822C306.31 211.571 304.023 210.889 300.934 210.889V212.889C303.762 212.889 305.532 213.518 306.577 214.372C307.593 215.202 308.047 216.343 308.047 217.684H310.047ZM300.934 210.889H294.041V212.889H300.934V210.889ZM294.041 210.889C292.564 210.889 291.76 210.673 291.343 210.398C291.025 210.188 290.832 209.88 290.832 209.205H288.832C288.832 210.36 289.219 211.394 290.242 212.068C291.167 212.678 292.468 212.889 294.041 212.889V210.889ZM290.832 209.205C290.832 208.316 291.261 207.725 292.09 206.64L290.502 205.426C289.745 206.415 288.832 207.532 288.832 209.205H290.832ZM290.81 206.907C292.63 207.918 294.633 208.314 296.42 208.314V206.314C294.913 206.314 293.256 205.978 291.782 205.159L290.81 206.907ZM296.42 208.314C298.934 208.314 301.665 207.522 303.784 205.692C305.928 203.839 307.363 200.991 307.363 197.066H305.363C305.363 200.461 304.144 202.737 302.476 204.178C300.783 205.642 298.542 206.314 296.42 206.314V208.314ZM307.363 197.066C307.363 195.445 307.079 194.247 306.804 193.308C306.657 192.806 306.55 192.495 306.453 192.138C306.365 191.812 306.326 191.583 306.326 191.393H304.326C304.326 191.843 304.417 192.271 304.523 192.661C304.62 193.021 304.773 193.488 304.885 193.87C305.128 194.7 305.363 195.698 305.363 197.066H307.363ZM306.326 191.393C306.326 191.274 306.352 191.226 306.383 191.187C306.43 191.126 306.546 191.018 306.825 190.884C307.413 190.603 308.37 190.365 309.861 190.054L309.453 188.096C308.016 188.395 306.808 188.675 305.962 189.08C305.525 189.29 305.107 189.567 304.799 189.965C304.475 190.385 304.326 190.872 304.326 191.393H306.326ZM300.186 203.278C299.633 203.601 298.777 203.813 298.006 203.813V205.813C299.065 205.813 300.283 205.537 301.194 205.006L300.186 203.278ZM298.018 203.813C295.859 203.786 294.475 202.999 293.585 201.701C292.652 200.34 292.174 198.289 292.174 195.602H290.174C290.174 198.466 290.672 200.99 291.935 202.832C293.241 204.736 295.273 205.779 297.994 205.813L298.018 203.813ZM292.174 195.602C292.174 194.605 292.561 192.689 293.343 191.182L291.567 190.262C290.641 192.049 290.174 194.28 290.174 195.602H292.174ZM292.849 191.641C293.576 191.329 294.296 191.173 295.2 191.173V189.173C294.03 189.173 293.042 189.383 292.061 189.803L292.849 191.641ZM295.2 191.173C296.86 191.173 298.235 191.889 299.22 193.163C300.221 194.458 300.849 196.377 300.849 198.774H302.849C302.849 196.047 302.135 193.665 300.803 191.941C299.455 190.196 297.505 189.173 295.2 189.173V191.173ZM300.849 198.774C300.849 200.638 300.597 202.454 299.852 203.596L301.528 204.688C302.613 203.024 302.849 200.692 302.849 198.774H300.849Z" fill="#12284A"/>
</g>
<g id="ConerR">
<path d="M264.66 215H273.627C272.163 214.146 271.37 212.926 271.37 211.035V194.382C272.529 193.223 273.932 192.491 275.884 192.491C277.287 192.491 278.507 192.857 279.361 193.711C281.008 191.881 281.74 190.234 281.984 188.831C281.313 188.282 280.154 187.855 278.751 187.855C277.226 187.855 275.213 188.526 274.176 189.38L271.248 193.223V187.672L264.05 191.027C265.453 191.332 266.612 192.979 266.612 194.992V211.035C266.612 212.743 265.819 214.451 264.66 215Z" fill="#12284A"/>
<path d="M264.66 215L264.232 214.096L264.66 216V215ZM273.627 215V216H277.326L274.131 214.136L273.627 215ZM271.37 194.382L270.663 193.675L270.37 193.968V194.382H271.37ZM279.361 193.711L278.654 194.418L279.399 195.163L280.104 194.38L279.361 193.711ZM281.984 188.831L282.969 189.002L283.069 188.427L282.617 188.057L281.984 188.831ZM274.176 189.38L273.54 188.608L273.451 188.682L273.381 188.774L274.176 189.38ZM271.248 193.223H270.248V196.186L272.043 193.829L271.248 193.223ZM271.248 187.672H272.248V186.103L270.826 186.766L271.248 187.672ZM264.05 191.027L263.628 190.121L260.939 191.374L263.838 192.004L264.05 191.027ZM264.66 216H273.627V214H264.66V216ZM274.131 214.136C273.512 213.775 273.087 213.368 272.811 212.899C272.536 212.432 272.37 211.836 272.37 211.035H270.37C270.37 212.125 270.6 213.085 271.088 213.913C271.574 214.741 272.278 215.371 273.123 215.864L274.131 214.136ZM272.37 211.035V194.382H270.37V211.035H272.37ZM272.077 195.089C273.074 194.092 274.232 193.491 275.884 193.491V191.491C273.632 191.491 271.984 192.354 270.663 193.675L272.077 195.089ZM275.884 193.491C277.126 193.491 278.05 193.814 278.654 194.418L280.068 193.004C278.964 191.9 277.448 191.491 275.884 191.491V193.491ZM280.104 194.38C281.856 192.434 282.688 190.62 282.969 189.002L280.999 188.66C280.792 189.848 280.16 191.328 278.618 193.042L280.104 194.38ZM282.617 188.057C281.732 187.333 280.335 186.855 278.751 186.855V188.855C279.973 188.855 280.894 189.231 281.351 189.605L282.617 188.057ZM278.751 186.855C277.857 186.855 276.864 187.049 275.964 187.349C275.071 187.646 274.185 188.077 273.54 188.608L274.812 190.152C275.204 189.829 275.843 189.497 276.597 189.246C277.344 188.997 278.12 188.855 278.751 188.855V186.855ZM273.381 188.774L270.453 192.617L272.043 193.829L274.971 189.986L273.381 188.774ZM272.248 193.223V187.672H270.248V193.223H272.248ZM270.826 186.766L263.628 190.121L264.472 191.933L271.67 188.578L270.826 186.766ZM263.838 192.004C264.635 192.177 265.612 193.281 265.612 194.992H267.612C267.612 192.677 266.271 190.487 264.262 190.05L263.838 192.004ZM265.612 194.992V211.035H267.612V194.992H265.612ZM265.612 211.035C265.612 211.742 265.446 212.447 265.17 213.017C264.889 213.599 264.538 213.951 264.232 214.096L265.088 215.904C265.941 215.5 266.566 214.723 266.971 213.888C267.381 213.039 267.612 212.036 267.612 211.035H265.612Z" fill="#12284A"/>
</g>
<g id="ConerE">
<path d="M251.69 211.95C244.98 211.95 241.869 207.436 241.503 200.665C247.664 200.36 252.727 200.055 257.973 198.896C257.912 192.003 254.618 187.672 248.762 187.672C242.723 187.672 236.806 193.589 236.806 202.617C236.806 211.584 242.174 215.732 248.64 215.732C252.91 215.732 256.204 213.353 257.973 210.669L257.912 210.547C257.18 211.035 254.679 211.95 251.69 211.95ZM246.81 190.295C250.775 190.295 252.605 193.65 252.605 196.944C249.616 198.286 245.285 198.957 241.503 199.445C241.503 195.663 243.15 192.003 244.37 190.6C245.163 190.356 246.078 190.295 246.81 190.295Z" fill="#12284A"/>
<path d="M241.503 200.665L241.454 199.666L240.45 199.716L240.504 200.719L241.503 200.665ZM257.973 198.896L258.189 199.872L258.98 199.698L258.973 198.887L257.973 198.896ZM257.973 210.669L258.808 211.219L259.125 210.738L258.867 210.222L257.973 210.669ZM257.912 210.547L258.806 210.1L258.3 209.087L257.357 209.715L257.912 210.547ZM252.605 196.944L253.015 197.856L253.605 197.591V196.944H252.605ZM241.503 199.445H240.503V200.582L241.631 200.437L241.503 199.445ZM244.37 190.6L244.076 189.644L243.803 189.728L243.615 189.944L244.37 190.6ZM251.69 210.95C248.58 210.95 246.425 209.916 244.983 208.203C243.511 206.454 242.678 203.875 242.502 200.611L240.504 200.719C240.694 204.226 241.6 207.289 243.452 209.491C245.335 211.727 248.09 212.95 251.69 212.95V210.95ZM241.552 201.664C247.708 201.359 252.85 201.052 258.189 199.872L257.757 197.92C252.604 199.058 247.62 199.361 241.454 199.666L241.552 201.664ZM258.973 198.887C258.941 195.298 258.068 192.247 256.32 190.073C254.548 187.868 251.961 186.672 248.762 186.672V188.672C251.419 188.672 253.407 189.641 254.761 191.326C256.139 193.04 256.944 195.601 256.973 198.905L258.973 198.887ZM248.762 186.672C242.031 186.672 235.806 193.187 235.806 202.617H237.806C237.806 193.991 243.415 188.672 248.762 188.672V186.672ZM235.806 202.617C235.806 207.303 237.213 210.858 239.59 213.243C241.962 215.624 245.194 216.732 248.64 216.732V214.732C245.62 214.732 242.935 213.766 241.007 211.831C239.083 209.9 237.806 206.898 237.806 202.617H235.806ZM248.64 216.732C253.302 216.732 256.887 214.134 258.808 211.219L257.138 210.119C255.521 212.572 252.518 214.732 248.64 214.732V216.732ZM258.867 210.222L258.806 210.1L257.018 210.994L257.079 211.116L258.867 210.222ZM257.357 209.715C257.123 209.871 256.436 210.187 255.391 210.465C254.371 210.736 253.086 210.95 251.69 210.95V212.95C253.283 212.95 254.743 212.707 255.904 212.398C257.039 212.096 257.969 211.711 258.467 211.379L257.357 209.715ZM246.81 191.295C248.472 191.295 249.63 191.982 250.399 192.99C251.192 194.031 251.605 195.466 251.605 196.944H253.605C253.605 195.128 253.103 193.239 251.99 191.778C250.852 190.286 249.113 189.295 246.81 189.295V191.295ZM252.195 196.032C249.363 197.303 245.18 197.962 241.375 198.453L241.631 200.437C245.39 199.952 249.869 199.269 253.015 197.856L252.195 196.032ZM242.503 199.445C242.503 197.693 242.886 195.948 243.42 194.47C243.959 192.977 244.622 191.834 245.125 191.256L243.615 189.944C242.898 190.769 242.128 192.158 241.538 193.791C240.943 195.439 240.503 197.415 240.503 199.445H242.503ZM244.664 191.556C245.317 191.355 246.116 191.295 246.81 191.295V189.295C246.04 189.295 245.009 189.357 244.076 189.644L244.664 191.556Z" fill="#12284A"/>
</g>
<g id="ConerN">
<path d="M204.66 215H213.261C212.163 214.329 211.37 212.987 211.37 211.096V192.369C212.224 192.003 214.115 191.515 216.067 191.515C220.52 191.515 222.838 194.138 222.838 198.53V211.096C222.838 212.926 221.923 214.512 220.886 215H229.487C228.389 214.329 227.596 212.987 227.596 211.096V197.249C227.596 189.807 223.448 187.672 217.836 187.672L211.248 191.454V187.672L204.05 191.027C205.087 191.271 206.612 192.43 206.612 195.175V211.096C206.612 212.926 205.697 214.512 204.66 215Z" fill="#12284A"/>
<path d="M204.66 215L204.234 214.095L204.66 216V215ZM213.261 215V216H216.815L213.782 214.147L213.261 215ZM211.37 192.369L210.976 191.45L210.37 191.71V192.369H211.37ZM220.886 215L220.46 214.095L220.886 216V215ZM229.487 215V216H233.041L230.008 214.147L229.487 215ZM217.836 187.672V186.672H217.569L217.338 186.805L217.836 187.672ZM211.248 191.454H210.248V193.181L211.746 192.321L211.248 191.454ZM211.248 187.672H212.248V186.103L210.826 186.766L211.248 187.672ZM204.05 191.027L203.628 190.121L201.012 191.34L203.821 192L204.05 191.027ZM204.66 216H213.261V214H204.66V216ZM213.782 214.147C213.03 213.687 212.37 212.699 212.37 211.096H210.37C210.37 213.275 211.296 214.971 212.74 215.853L213.782 214.147ZM212.37 211.096V192.369H210.37V211.096H212.37ZM211.764 193.288C212.492 192.976 214.248 192.515 216.067 192.515V190.515C213.982 190.515 211.956 191.03 210.976 191.45L211.764 193.288ZM216.067 192.515C218.096 192.515 219.495 193.107 220.395 194.062C221.304 195.025 221.838 196.501 221.838 198.53H223.838C223.838 196.167 223.213 194.135 221.85 192.689C220.478 191.234 218.491 190.515 216.067 190.515V192.515ZM221.838 198.53V211.096H223.838V198.53H221.838ZM221.838 211.096C221.838 211.848 221.649 212.544 221.364 213.088C221.072 213.649 220.721 213.972 220.46 214.095L221.312 215.905C222.088 215.54 222.713 214.826 223.137 214.014C223.57 213.186 223.838 212.174 223.838 211.096H221.838ZM220.886 216H229.487V214H220.886V216ZM230.008 214.147C229.256 213.687 228.596 212.699 228.596 211.096H226.596C226.596 213.275 227.522 214.971 228.966 215.853L230.008 214.147ZM228.596 211.096V197.249H226.596V211.096H228.596ZM228.596 197.249C228.596 193.344 227.502 190.62 225.465 188.905C223.462 187.219 220.739 186.672 217.836 186.672V188.672C220.545 188.672 222.702 189.193 224.176 190.435C225.616 191.647 226.596 193.712 226.596 197.249H228.596ZM217.338 186.805L210.75 190.587L211.746 192.321L218.334 188.539L217.338 186.805ZM212.248 191.454V187.672H210.248V191.454H212.248ZM210.826 186.766L203.628 190.121L204.472 191.933L211.67 188.578L210.826 186.766ZM203.821 192C204.384 192.133 205.612 192.871 205.612 195.175H207.612C207.612 191.989 205.79 190.409 204.279 190.054L203.821 192ZM205.612 195.175V211.096H207.612V195.175H205.612ZM205.612 211.096C205.612 211.848 205.423 212.544 205.138 213.088C204.846 213.649 204.495 213.972 204.234 214.095L205.086 215.905C205.862 215.54 206.487 214.826 206.911 214.014C207.344 213.186 207.612 212.174 207.612 211.096H205.612Z" fill="#12284A"/>
</g>
<g id="ConerO">
<path d="M183.762 215.732C191.204 215.732 196.511 209.51 196.511 200.482C196.511 192.43 191.57 187.672 184.738 187.672C177.296 187.672 172.05 193.894 172.05 202.922C172.05 210.974 176.991 215.732 183.762 215.732ZM189.862 212.011C188.764 212.621 187.727 212.865 186.202 212.865C180.773 212.804 176.686 207.985 176.686 200.238C176.686 196.7 177.479 193.223 178.699 191.393C179.675 190.844 180.895 190.539 182.298 190.539C187.727 190.6 191.875 195.419 191.875 203.166C191.875 206.704 191.082 210.181 189.862 212.011Z" fill="#12284A"/>
<path d="M189.862 212.011L190.348 212.885L190.56 212.767L190.694 212.566L189.862 212.011ZM186.202 212.865L186.191 213.865H186.202V212.865ZM178.699 191.393L178.209 190.521L178 190.639L177.867 190.838L178.699 191.393ZM182.298 190.539L182.309 189.539H182.298V190.539ZM183.762 216.732C187.782 216.732 191.248 215.043 193.693 212.136C196.127 209.241 197.511 205.188 197.511 200.482H195.511C195.511 204.804 194.241 208.376 192.162 210.849C190.092 213.31 187.184 214.732 183.762 214.732V216.732ZM197.511 200.482C197.511 196.25 196.209 192.784 193.911 190.368C191.61 187.95 188.393 186.672 184.738 186.672V188.672C187.915 188.672 190.584 189.773 192.462 191.747C194.342 193.723 195.511 196.662 195.511 200.482H197.511ZM184.738 186.672C180.717 186.672 177.265 188.362 174.836 191.27C172.417 194.166 171.05 198.219 171.05 202.922H173.05C173.05 198.597 174.306 195.025 176.371 192.553C178.425 190.093 181.317 188.672 184.738 188.672V186.672ZM171.05 202.922C171.05 207.154 172.352 210.619 174.641 213.034C176.933 215.452 180.135 216.732 183.762 216.732V214.732C180.618 214.732 177.964 213.633 176.093 211.659C174.219 209.682 173.05 206.742 173.05 202.922H171.05ZM189.376 211.137C188.454 211.649 187.592 211.865 186.202 211.865V213.865C187.863 213.865 189.074 213.593 190.348 212.885L189.376 211.137ZM186.213 211.865C183.817 211.838 181.719 210.771 180.197 208.819C178.663 206.852 177.686 203.943 177.686 200.238H175.686C175.686 204.28 176.752 207.654 178.62 210.049C180.498 212.458 183.158 213.831 186.191 213.865L186.213 211.865ZM177.686 200.238C177.686 196.789 178.468 193.542 179.531 191.948L177.867 190.838C176.49 192.904 175.686 196.611 175.686 200.238H177.686ZM179.189 192.265C179.992 191.813 181.038 191.539 182.298 191.539V189.539C180.752 189.539 179.358 189.875 178.209 190.521L179.189 192.265ZM182.287 191.539C184.685 191.566 186.799 192.634 188.336 194.589C189.884 196.556 190.875 199.464 190.875 203.166H192.875C192.875 199.121 191.792 195.746 189.908 193.352C188.014 190.944 185.34 189.573 182.309 189.539L182.287 191.539ZM190.875 203.166C190.875 206.615 190.093 209.862 189.03 211.456L190.694 212.566C192.071 210.5 192.875 206.793 192.875 203.166H190.875Z" fill="#12284A"/>
</g>
<g id="ConerC">
<path d="M151.984 215.732C159.182 215.732 163.452 212.804 165.831 208.839L165.77 208.778C162.659 211.279 159.609 212.133 155.095 212.133C145.274 212.133 139.174 204.508 139.174 192.979C139.174 187.001 140.943 182.243 144.481 178.217C146.006 177.424 148.263 176.753 151.008 176.753C154.851 176.753 159.426 177.729 162.476 182.182C164.062 180.474 165.16 178.339 165.404 176.082C163.086 174.557 159.426 173.642 154.546 173.642C142.163 173.642 134.05 183.707 134.05 196.395C134.05 208.473 141.736 215.732 151.984 215.732Z" fill="#12284A"/>
<path d="M165.831 208.839L166.688 209.353L167.09 208.684L166.538 208.132L165.831 208.839ZM165.77 208.778L166.477 208.071L165.843 207.436L165.143 207.999L165.77 208.778ZM144.481 178.217L144.02 177.33L143.853 177.416L143.73 177.557L144.481 178.217ZM162.476 182.182L161.651 182.747L162.358 183.779L163.209 182.862L162.476 182.182ZM165.404 176.082L166.398 176.189L166.464 175.582L165.954 175.247L165.404 176.082ZM151.984 216.732C159.505 216.732 164.114 213.644 166.688 209.353L164.974 208.325C162.79 211.964 158.859 214.732 151.984 214.732V216.732ZM166.538 208.132L166.477 208.071L165.063 209.485L165.124 209.546L166.538 208.132ZM165.143 207.999C162.253 210.323 159.442 211.133 155.095 211.133V213.133C159.776 213.133 163.065 212.235 166.397 209.557L165.143 207.999ZM155.095 211.133C150.466 211.133 146.776 209.348 144.224 206.244C141.655 203.12 140.174 198.576 140.174 192.979H138.174C138.174 198.911 139.743 203.944 142.679 207.515C145.633 211.106 149.903 213.133 155.095 213.133V211.133ZM140.174 192.979C140.174 187.226 141.866 182.707 145.232 178.877L143.73 177.557C140.02 181.779 138.174 186.776 138.174 192.979H140.174ZM144.942 179.104C146.323 178.386 148.422 177.753 151.008 177.753V175.753C148.104 175.753 145.689 176.462 144.02 177.33L144.942 179.104ZM151.008 177.753C154.695 177.753 158.868 178.684 161.651 182.747L163.301 181.617C159.984 176.774 155.007 175.753 151.008 175.753V177.753ZM163.209 182.862C164.915 181.025 166.127 178.696 166.398 176.189L164.41 175.975C164.193 177.982 163.209 179.923 161.743 181.502L163.209 182.862ZM165.954 175.247C163.406 173.571 159.523 172.642 154.546 172.642V174.642C159.329 174.642 162.766 175.543 164.854 176.917L165.954 175.247ZM154.546 172.642C141.486 172.642 133.05 183.288 133.05 196.395H135.05C135.05 184.126 142.84 174.642 154.546 174.642V172.642ZM133.05 196.395C133.05 202.65 135.044 207.747 138.454 211.287C141.864 214.827 146.618 216.732 151.984 216.732V214.732C147.102 214.732 142.889 213.008 139.894 209.899C136.899 206.79 135.05 202.218 135.05 196.395H133.05Z" fill="#12284A"/>
</g>
</g>
<circle id="Ellipse 1" cx="217" cy="199" r="38" fill="#EFF0F1"/>
<path id="Vector4" d="M217 1.08105L217 200.013L217 398.945" stroke="#9EC059" stroke-width="4" stroke-linecap="round" stroke-linejoin="round" stroke-dasharray="8 8"/>
<path id="Vector5" d="M217 -2.8584L217 205.469L217 413.796" stroke="#479DA5" stroke-width="4" stroke-linecap="round" stroke-linejoin="round" stroke-dasharray="8 8"/>
<rect id="Rectangle1" x="160" y="103" width="113" height="34" rx="5" fill="#9EC059"/>
<path id="Freelancer" d="M172.47 126H175.515C175.053 125.706 174.843 125.328 174.843 124.803V119.889C174.843 119.742 174.969 119.658 175.095 119.658H177.174C178.539 119.658 179.4 119.448 179.568 118.545C179.001 118.629 178.308 118.671 177.594 118.671H175.116C174.927 118.671 174.843 118.587 174.843 118.44V113.988C174.843 113.442 174.906 113.064 174.99 112.854C174.99 112.854 175.536 112.77 176.229 112.77C179.148 112.77 179.946 114.009 180.492 115.437H180.513C180.681 114.198 180.681 112.728 180.534 112.014H172.47C172.764 112.224 173.079 112.518 173.079 113.148V124.803C173.079 125.517 172.764 125.79 172.47 126ZM182.18 126H185.267C184.763 125.706 184.49 125.286 184.49 124.635V118.902C184.889 118.503 185.372 118.251 186.044 118.251C186.527 118.251 186.947 118.377 187.241 118.671C187.808 118.041 188.06 117.474 188.144 116.991C187.913 116.802 187.514 116.655 187.031 116.655C186.506 116.655 185.813 116.886 185.456 117.18L184.448 118.503V116.592L181.97 117.747C182.453 117.852 182.852 118.419 182.852 119.112V124.635C182.852 125.223 182.579 125.811 182.18 126ZM194.346 124.95C192.036 124.95 190.965 123.396 190.839 121.065C192.96 120.96 194.703 120.855 196.509 120.456C196.488 118.083 195.354 116.592 193.338 116.592C191.259 116.592 189.222 118.629 189.222 121.737C189.222 124.824 191.07 126.252 193.296 126.252C194.766 126.252 195.9 125.433 196.509 124.509L196.488 124.467C196.236 124.635 195.375 124.95 194.346 124.95ZM192.666 117.495C194.031 117.495 194.661 118.65 194.661 119.784C193.632 120.246 192.141 120.477 190.839 120.645C190.839 119.343 191.406 118.083 191.826 117.6C192.099 117.516 192.414 117.495 192.666 117.495ZM203.774 124.95C201.464 124.95 200.393 123.396 200.267 121.065C202.388 120.96 204.131 120.855 205.937 120.456C205.916 118.083 204.782 116.592 202.766 116.592C200.687 116.592 198.65 118.629 198.65 121.737C198.65 124.824 200.498 126.252 202.724 126.252C204.194 126.252 205.328 125.433 205.937 124.509L205.916 124.467C205.664 124.635 204.803 124.95 203.774 124.95ZM202.094 117.495C203.459 117.495 204.089 118.65 204.089 119.784C203.06 120.246 201.569 120.477 200.267 120.645C200.267 119.343 200.834 118.083 201.254 117.6C201.527 117.516 201.842 117.495 202.094 117.495ZM208.162 126H211.123C210.745 125.769 210.472 125.307 210.472 124.656V111.069L207.952 111.804C208.708 112.035 208.834 112.791 208.834 113.274V124.656C208.834 125.286 208.519 125.832 208.162 126ZM220.057 124.11V119.364C220.057 117.873 219.112 116.592 217.306 116.592C215.563 116.592 214.198 117.474 213.463 118.503L213.505 118.545C214.534 118.083 215.311 117.957 216.361 117.957C217.789 117.957 218.419 118.797 218.419 120.057V121.023C214.975 122.052 213.421 123.081 213.421 123.459C213.421 125.58 214.744 126.252 216.046 126.252C217.159 126.252 217.957 125.517 218.419 124.782C218.461 125.622 218.692 125.979 218.986 126.168L220.645 125.412C220.246 125.202 220.057 124.929 220.057 124.11ZM216.823 125.076C215.563 125.076 215.08 124.026 215.059 122.85C215.857 122.43 217.243 122.136 218.419 122.115V124.425C217.999 124.824 217.369 125.076 216.823 125.076ZM223.475 126H226.436C226.058 125.769 225.785 125.307 225.785 124.656V118.209C226.079 118.083 226.73 117.915 227.402 117.915C228.935 117.915 229.733 118.818 229.733 120.33V124.656C229.733 125.286 229.418 125.832 229.061 126H232.022C231.644 125.769 231.371 125.307 231.371 124.656V119.889C231.371 117.327 229.943 116.592 228.011 116.592L225.743 117.894V116.592L223.265 117.747C223.622 117.831 224.147 118.23 224.147 119.175V124.656C224.147 125.286 223.832 125.832 223.475 126ZM238.463 126.252C239.807 126.252 241.004 125.643 241.718 124.572L241.697 124.53C240.857 124.866 240.332 124.971 239.471 124.971C237.434 124.971 236.111 123.333 236.111 120.771C236.111 119.574 236.552 118.356 237.203 117.663C237.434 117.558 237.728 117.516 238.085 117.516C239.135 117.516 239.975 118.02 240.689 119.112C241.109 118.734 241.613 117.894 241.739 117.432C240.962 116.865 240.101 116.592 239.009 116.592C236.426 116.592 234.536 118.797 234.536 121.884C234.536 124.404 236.195 126.252 238.463 126.252ZM248.924 124.95C246.614 124.95 245.543 123.396 245.417 121.065C247.538 120.96 249.281 120.855 251.087 120.456C251.066 118.083 249.932 116.592 247.916 116.592C245.837 116.592 243.8 118.629 243.8 121.737C243.8 124.824 245.648 126.252 247.874 126.252C249.344 126.252 250.478 125.433 251.087 124.509L251.066 124.467C250.814 124.635 249.953 124.95 248.924 124.95ZM247.244 117.495C248.609 117.495 249.239 118.65 249.239 119.784C248.21 120.246 246.719 120.477 245.417 120.645C245.417 119.343 245.984 118.083 246.404 117.6C246.677 117.516 246.992 117.495 247.244 117.495ZM253.522 126H256.609C256.105 125.706 255.832 125.286 255.832 124.635V118.902C256.231 118.503 256.714 118.251 257.386 118.251C257.869 118.251 258.289 118.377 258.583 118.671C259.15 118.041 259.402 117.474 259.486 116.991C259.255 116.802 258.856 116.655 258.373 116.655C257.848 116.655 257.155 116.886 256.798 117.18L255.79 118.503V116.592L253.312 117.747C253.795 117.852 254.194 118.419 254.194 119.112V124.635C254.194 125.223 253.921 125.811 253.522 126Z" fill="white"/>
<rect id="Rectangle2" x="160" y="262" width="114" height="33" rx="5" fill="#479DA5"/>
<path id="Employer" d="M178.47 285H186.786C187.164 284.202 187.416 282.522 187.479 281.241H187.437C186.702 283.215 185.379 284.265 182.649 284.265H181.515C181.158 284.265 180.843 284.034 180.843 283.53V278.448C180.843 278.259 180.948 278.196 181.137 278.196H183.489C184.875 278.196 185.736 277.986 185.904 277.083C185.337 277.167 184.644 277.209 183.93 277.209H181.137C180.99 277.209 180.843 277.188 180.843 276.957V272.988C180.843 272.379 180.927 272.022 180.99 271.854C180.99 271.854 181.599 271.77 182.502 271.77C185.148 271.77 186.072 272.904 186.618 274.5H186.639C186.786 273.156 186.87 271.791 186.702 271.014H178.47C178.764 271.224 179.079 271.518 179.079 272.148V283.803C179.079 284.517 178.764 284.79 178.47 285ZM200.481 285H203.442C203.064 284.769 202.791 284.307 202.791 283.656V278.889C202.791 276.348 201.636 275.571 199.473 275.571L197.142 276.936C196.638 275.928 195.672 275.571 194.496 275.571L192.207 276.894V275.592L189.729 276.747C190.086 276.831 190.611 277.23 190.611 278.175V283.656C190.611 284.286 190.296 284.832 189.939 285H192.9C192.522 284.769 192.249 284.307 192.249 283.656V277.209C192.627 277.062 193.32 276.915 193.824 276.915C195.126 276.915 195.882 277.734 195.882 279.372V283.656C195.882 284.286 195.567 284.832 195.21 285H198.171C197.793 284.769 197.52 284.307 197.52 283.656V278.889C197.52 278.238 197.436 277.713 197.289 277.272C197.751 277.125 198.423 276.915 199.011 276.915C200.46 276.915 201.153 277.797 201.153 279.372V283.656C201.153 284.286 200.838 284.832 200.481 285ZM210.414 275.571L208.146 276.873L208.125 275.592L205.647 276.747C206.004 276.831 206.529 277.23 206.529 278.175V288.381C206.529 288.927 206.256 289.452 205.899 289.788H208.986C209.154 289.536 209.238 289.452 209.49 289.284H208.188V285.084C208.587 285.189 209.112 285.252 209.868 285.252C212.913 285.252 214.593 282.438 214.593 279.666C214.593 276.726 212.493 275.571 210.414 275.571ZM211.695 284.076C211.296 284.223 210.939 284.265 210.54 284.265C209.511 284.265 208.755 283.929 208.188 283.299L208.167 277.209C208.692 277.041 209.259 276.915 209.826 276.915C211.422 276.915 212.85 277.944 212.85 280.632C212.85 282.522 212.199 283.572 211.695 284.076ZM217.003 285H219.964C219.586 284.769 219.313 284.307 219.313 283.656V270.069L216.793 270.804C217.549 271.035 217.675 271.791 217.675 272.274V283.656C217.675 284.286 217.36 284.832 217.003 285ZM226.316 285.252C228.878 285.252 230.705 283.11 230.705 280.002C230.705 277.23 229.004 275.592 226.652 275.592C224.09 275.592 222.284 277.734 222.284 280.842C222.284 283.614 223.985 285.252 226.316 285.252ZM228.416 283.971C228.038 284.181 227.681 284.265 227.156 284.265C225.287 284.244 223.88 282.585 223.88 279.918C223.88 278.7 224.153 277.503 224.573 276.873C224.909 276.684 225.329 276.579 225.812 276.579C227.681 276.6 229.109 278.259 229.109 280.926C229.109 282.144 228.836 283.341 228.416 283.971ZM234.046 289.851C234.844 289.851 235.306 289.431 235.705 288.402L239.59 278.217C239.905 277.398 240.451 276.348 241.102 275.865H238.162C238.792 276.159 238.876 276.579 238.876 277.125C238.876 277.335 238.792 277.776 238.54 278.406L236.881 283.152L236.797 282.69L234.865 277.314C234.592 276.6 234.718 276.159 234.907 275.865H231.946C232.534 276.222 232.744 276.537 233.038 277.272L236.02 285.084L234.907 287.247C234.403 288.276 233.647 288.759 232.702 288.822H232.681C232.891 289.515 233.353 289.851 234.046 289.851ZM246.785 283.95C244.475 283.95 243.404 282.396 243.278 280.065C245.399 279.96 247.142 279.855 248.948 279.456C248.927 277.083 247.793 275.592 245.777 275.592C243.698 275.592 241.661 277.629 241.661 280.737C241.661 283.824 243.509 285.252 245.735 285.252C247.205 285.252 248.339 284.433 248.948 283.509L248.927 283.467C248.675 283.635 247.814 283.95 246.785 283.95ZM245.105 276.495C246.47 276.495 247.1 277.65 247.1 278.784C246.071 279.246 244.58 279.477 243.278 279.645C243.278 278.343 243.845 277.083 244.265 276.6C244.538 276.516 244.853 276.495 245.105 276.495ZM251.173 285H254.26C253.756 284.706 253.483 284.286 253.483 283.635V277.902C253.882 277.503 254.365 277.251 255.037 277.251C255.52 277.251 255.94 277.377 256.234 277.671C256.801 277.041 257.053 276.474 257.137 275.991C256.906 275.802 256.507 275.655 256.024 275.655C255.499 275.655 254.806 275.886 254.449 276.18L253.441 277.503V275.592L250.963 276.747C251.446 276.852 251.845 277.419 251.845 278.112V283.635C251.845 284.223 251.572 284.811 251.173 285Z" fill="white"/>
<path id="C" d="M217.224 206.252C219.702 206.252 221.172 205.244 221.991 203.879L221.97 203.858C220.899 204.719 219.849 205.013 218.295 205.013C214.914 205.013 212.814 202.388 212.814 198.419C212.814 196.361 213.423 194.723 214.641 193.337C215.166 193.064 215.943 192.833 216.888 192.833C218.211 192.833 219.786 193.169 220.836 194.702C221.382 194.114 221.76 193.379 221.844 192.602C221.046 192.077 219.786 191.762 218.106 191.762C213.843 191.762 211.05 195.227 211.05 199.595C211.05 203.753 213.696 206.252 217.224 206.252Z" fill="white"/>
<rect id="clip1" x="205.987" y="104.012" width="20.5156" height="95.5596" fill="#FF0000"/>
<rect id="clip2" x="205.987" y="199.302" width="20.5156" height="94.4795" fill="#00F0FF"/>
</g>
<defs>
<clipPath id="clip0_4_2">
<rect width="408" height="398" fill="white"/>
</clipPath>
</defs>
</svg>
