<svg width="366" height="289" viewBox="0 0 366 289" fill="none" xmlns="http://www.w3.org/2000/svg">
<g id="Frame 1">
<rect width="366" height="289" fill="white"/>
<path id="sun" d="M261.33 148.5L235.2 150.28H152.13L126 148.5L159.91 146.19L126.63 139.29L160.54 141.62L128.51 130.25L161.79 137.17L131.6 121.54L163.62 132.94L135.85 113.34L166.02 128.99L141.18 105.8L168.94 125.41L147.48 99.05L172.31 122.26L154.64 93.22L176.09 119.6L162.53 88.42L180.18 117.47L171 84.75L184.54 115.92L179.9 82.25L189.06 114.99L189.05 81L193.66 114.67L198.28 81L198.27 114.99L207.43 82.25L202.79 115.92L216.32 84.75L207.14 117.47L224.79 88.42L211.24 119.6L232.68 93.22L215.01 122.26L239.85 99.05L218.39 125.41L246.15 105.8L221.3 128.99L251.48 113.34L223.7 132.94L255.73 121.54L225.54 137.17L258.82 130.25L226.79 141.62L260.7 139.29L227.42 146.19L261.33 148.5Z" fill="url(#paint0_radial_1_28)"/>
<circle id="clip" cx="195.736" cy="137.34" r="67.5265" fill="#E63434"/>
<path id="yellow lines" d="M214.33 109.65H214.32L194.33 95.28L193.58 94.74L193.17 95.17L176.15 113.25L175.82 113.6L175.79 113.64L176.06 114.43L188.86 151.97L189.46 152.35L199.73 158.68L200.21 159.01H200.27L200.77 158.55L213.06 147.3L213.48 146.91L213.5 146.36L214.96 110.64L214.98 110.12L214.32 109.65H214.33ZM213.1 109.74L199.85 110.71L194.79 96.58L213.1 109.74V109.74ZM199.69 148.51L196.85 149.33L185.7 119.96L199.1 112.1L204.08 143.05L199.69 148.51V148.51ZM193.47 96L198.85 111.03L185.07 119.11L176.82 113.68L193.47 96ZM177.14 115.14L184.63 120.07L195.84 149.61L189.45 151.27L177.14 115.14ZM190.52 152.07L196.67 150.47L196.54 149.97L196.68 150.46L199.48 149.66L199.71 157.74L190.52 152.07V152.07ZM200.75 157.51L200.51 149.16L204.79 143.84L212.27 146.96L200.75 157.51V157.51ZM212.74 146.03L205.11 142.85L200.1 111.74L214.18 110.7L212.74 146.03Z" fill="#F4DA9B"/>
<path id="Vector7" d="M212.27 146.96L200.75 157.51L200.51 149.16L204.79 143.84L212.27 146.96Z" fill="#F4DA9B"/>
<path id="Vector6" d="M190.52 152.07L196.67 150.47L196.54 149.97L196.68 150.46L199.48 149.66L199.71 157.74L190.52 152.07Z" fill="#F4DA9B"/>
<path id="Vector5" d="M195.84 149.61L189.45 151.27L177.14 115.14L184.63 120.07L195.84 149.61Z" fill="#F4DA9B"/>
<path id="Vector4" d="M204.08 143.05L199.69 148.51L196.85 149.33L185.7 119.96L199.1 112.1L204.08 143.05Z" fill="#F4DA9B"/>
<path id="Vector3" d="M214.18 110.7L212.74 146.03L205.11 142.85L200.1 111.74L214.18 110.7Z" fill="#F4DA9B"/>
<path id="Vector2" d="M213.1 109.74L199.85 110.71L194.79 96.58L213.1 109.74Z" fill="#F4DA9B"/>
<path id="Vector1" d="M198.85 111.03L185.07 119.11L176.82 113.68L193.47 96L198.85 111.03Z" fill="#F4DA9B"/>
<path id="lines" d="M193.48 93.7L174.9 113.44L188.21 152.49L200.36 159.98L214.26 147.27L215.79 109.73L193.48 93.7V93.7ZM213.1 109.74L199.85 110.71L194.79 96.58L213.1 109.74ZM204.08 143.05L199.69 148.51L196.85 149.33L185.7 119.96L199.1 112.1L204.08 143.05V143.05ZM193.47 96L198.85 111.03L185.07 119.11L176.82 113.68L193.47 96V96ZM177.14 115.14L184.63 120.07L195.84 149.61L189.45 151.27L177.14 115.14V115.14ZM190.52 152.07L196.45 150.52L196.59 150.48L196.68 150.46L196.84 150.41L199.48 149.66L199.71 157.74L190.52 152.07V152.07ZM200.75 157.51L200.51 149.16L204.79 143.84L212.27 146.96L200.75 157.51V157.51ZM212.74 146.03L205.11 142.85L200.1 111.74L214.18 110.7L212.74 146.03V146.03Z" fill="white"/>
<g id="saltopia">
<mask id="path-12-outside-1_1_28" maskUnits="userSpaceOnUse" x="100.823" y="156.214" width="189" height="52" fill="black">
<rect fill="white" x="100.823" y="156.214" width="189" height="52"/>
<path d="M124.17 174.203L120.255 175.311C120.009 174.659 119.645 174.025 119.165 173.409C118.698 172.781 118.057 172.264 117.245 171.858C116.432 171.452 115.392 171.249 114.124 171.249C112.388 171.249 110.942 171.649 109.785 172.449C108.64 173.237 108.067 174.24 108.067 175.459C108.067 176.542 108.461 177.398 109.249 178.026C110.037 178.653 111.268 179.177 112.942 179.595L117.153 180.629C119.689 181.245 121.578 182.187 122.822 183.455C124.065 184.71 124.687 186.329 124.687 188.311C124.687 189.936 124.219 191.389 123.283 192.669C122.36 193.949 121.067 194.959 119.405 195.697C117.743 196.436 115.811 196.805 113.607 196.805C110.714 196.805 108.32 196.178 106.424 194.922C104.528 193.666 103.328 191.832 102.823 189.419L106.959 188.385C107.353 189.911 108.098 191.056 109.194 191.82C110.302 192.583 111.748 192.964 113.533 192.964C115.565 192.964 117.177 192.534 118.371 191.672C119.578 190.798 120.181 189.751 120.181 188.533C120.181 187.548 119.836 186.723 119.147 186.058C118.458 185.381 117.399 184.876 115.971 184.544L111.243 183.436C108.646 182.821 106.738 181.866 105.519 180.574C104.313 179.269 103.709 177.638 103.709 175.68C103.709 174.08 104.159 172.664 105.057 171.433C105.968 170.202 107.206 169.236 108.769 168.534C110.345 167.832 112.13 167.482 114.124 167.482C116.931 167.482 119.135 168.097 120.735 169.328C122.348 170.559 123.493 172.184 124.17 174.203ZM139.593 196.879C137.796 196.879 136.165 196.541 134.7 195.864C133.235 195.174 132.071 194.183 131.21 192.891C130.348 191.586 129.917 190.01 129.917 188.163C129.917 186.538 130.237 185.221 130.877 184.212C131.518 183.19 132.373 182.39 133.444 181.811C134.515 181.232 135.697 180.802 136.99 180.518C138.295 180.223 139.606 179.989 140.923 179.817C142.646 179.595 144.044 179.429 145.115 179.318C146.198 179.195 146.986 178.992 147.478 178.709C147.983 178.426 148.235 177.933 148.235 177.232V177.084C148.235 175.262 147.737 173.846 146.74 172.837C145.755 171.827 144.259 171.322 142.252 171.322C140.172 171.322 138.541 171.778 137.359 172.689C136.177 173.6 135.346 174.572 134.866 175.607L130.73 174.129C131.468 172.406 132.453 171.064 133.684 170.104C134.928 169.131 136.282 168.454 137.747 168.072C139.224 167.678 140.677 167.482 142.105 167.482C143.016 167.482 144.062 167.592 145.244 167.814C146.438 168.023 147.589 168.46 148.697 169.125C149.817 169.79 150.747 170.793 151.485 172.135C152.224 173.477 152.593 175.274 152.593 177.527V196.214H148.235V192.374H148.014C147.718 192.989 147.226 193.648 146.536 194.349C145.847 195.051 144.93 195.648 143.785 196.141C142.64 196.633 141.243 196.879 139.593 196.879ZM140.258 192.964C141.982 192.964 143.434 192.626 144.616 191.949C145.81 191.272 146.709 190.398 147.312 189.327C147.928 188.256 148.235 187.129 148.235 185.947V181.959C148.051 182.18 147.644 182.383 147.017 182.568C146.401 182.741 145.687 182.894 144.875 183.03C144.074 183.153 143.293 183.264 142.529 183.362C141.778 183.448 141.169 183.522 140.701 183.584C139.569 183.732 138.51 183.972 137.525 184.304C136.553 184.624 135.765 185.11 135.161 185.763C134.571 186.403 134.275 187.277 134.275 188.385C134.275 189.899 134.835 191.044 135.955 191.82C137.088 192.583 138.522 192.964 140.258 192.964ZM164.905 158.396V196.214H160.547V158.396H164.905ZM185.223 167.851V171.544H170.524V167.851H185.223ZM174.808 161.055H179.166V188.089C179.166 189.321 179.344 190.244 179.701 190.859C180.071 191.463 180.538 191.869 181.105 192.078C181.683 192.275 182.293 192.374 182.933 192.374C183.413 192.374 183.807 192.349 184.115 192.3C184.422 192.238 184.669 192.189 184.853 192.152L185.74 196.067C185.444 196.178 185.032 196.288 184.502 196.399C183.973 196.522 183.302 196.584 182.49 196.584C181.259 196.584 180.052 196.319 178.87 195.79C177.701 195.26 176.728 194.454 175.953 193.371C175.189 192.287 174.808 190.921 174.808 189.271V161.055ZM202.996 196.805C200.435 196.805 198.189 196.196 196.256 194.977C194.335 193.758 192.834 192.053 191.75 189.862C190.679 187.671 190.144 185.11 190.144 182.18C190.144 179.226 190.679 176.647 191.75 174.443C192.834 172.24 194.335 170.528 196.256 169.31C198.189 168.091 200.435 167.482 202.996 167.482C205.557 167.482 207.797 168.091 209.718 169.31C211.65 170.528 213.152 172.24 214.223 174.443C215.307 176.647 215.848 179.226 215.848 182.18C215.848 185.11 215.307 187.671 214.223 189.862C213.152 192.053 211.65 193.758 209.718 194.977C207.797 196.196 205.557 196.805 202.996 196.805ZM202.996 192.891C204.941 192.891 206.541 192.392 207.797 191.395C209.053 190.398 209.982 189.087 210.585 187.462C211.189 185.837 211.49 184.076 211.49 182.18C211.49 180.285 211.189 178.518 210.585 176.881C209.982 175.243 209.053 173.92 207.797 172.91C206.541 171.901 204.941 171.396 202.996 171.396C201.051 171.396 199.451 171.901 198.195 172.91C196.939 173.92 196.01 175.243 195.406 176.881C194.803 178.518 194.502 180.285 194.502 182.18C194.502 184.076 194.803 185.837 195.406 187.462C196.01 189.087 196.939 190.398 198.195 191.395C199.451 192.392 201.051 192.891 202.996 192.891ZM222.501 206.851V167.851H226.711V172.357H227.228C227.548 171.864 227.991 171.236 228.557 170.473C229.136 169.697 229.961 169.008 231.032 168.405C232.115 167.789 233.58 167.482 235.427 167.482C237.815 167.482 239.92 168.079 241.742 169.273C243.564 170.467 244.986 172.16 246.008 174.351C247.029 176.542 247.54 179.127 247.54 182.107C247.54 185.11 247.029 187.714 246.008 189.918C244.986 192.109 243.57 193.808 241.761 195.014C239.951 196.208 237.864 196.805 235.501 196.805C233.679 196.805 232.22 196.504 231.124 195.901C230.029 195.285 229.185 194.589 228.594 193.814C228.003 193.026 227.548 192.374 227.228 191.857H226.859V206.851H222.501ZM226.785 182.033C226.785 184.175 227.099 186.064 227.726 187.702C228.354 189.327 229.271 190.601 230.478 191.524C231.684 192.435 233.162 192.891 234.91 192.891C236.732 192.891 238.252 192.41 239.471 191.45C240.702 190.478 241.625 189.173 242.241 187.535C242.868 185.886 243.182 184.052 243.182 182.033C243.182 180.038 242.875 178.241 242.259 176.641C241.656 175.028 240.739 173.754 239.508 172.818C238.289 171.87 236.756 171.396 234.91 171.396C233.137 171.396 231.647 171.846 230.441 172.744C229.234 173.631 228.324 174.874 227.708 176.474C227.092 178.062 226.785 179.915 226.785 182.033ZM254.188 196.214V167.851H258.546V196.214H254.188ZM256.404 163.124C255.555 163.124 254.822 162.834 254.207 162.256C253.603 161.677 253.302 160.982 253.302 160.169C253.302 159.357 253.603 158.661 254.207 158.082C254.822 157.504 255.555 157.214 256.404 157.214C257.253 157.214 257.98 157.504 258.583 158.082C259.199 158.661 259.506 159.357 259.506 160.169C259.506 160.982 259.199 161.677 258.583 162.256C257.98 162.834 257.253 163.124 256.404 163.124ZM274.875 196.879C273.077 196.879 271.446 196.541 269.981 195.864C268.516 195.174 267.353 194.183 266.491 192.891C265.629 191.586 265.198 190.01 265.198 188.163C265.198 186.538 265.518 185.221 266.159 184.212C266.799 183.19 267.654 182.39 268.725 181.811C269.796 181.232 270.978 180.802 272.271 180.518C273.576 180.223 274.887 179.989 276.204 179.817C277.928 179.595 279.325 179.429 280.396 179.318C281.479 179.195 282.267 178.992 282.759 178.709C283.264 178.426 283.517 177.933 283.517 177.232V177.084C283.517 175.262 283.018 173.846 282.021 172.837C281.036 171.827 279.54 171.322 277.534 171.322C275.453 171.322 273.822 171.778 272.64 172.689C271.458 173.6 270.627 174.572 270.147 175.607L266.011 174.129C266.75 172.406 267.734 171.064 268.965 170.104C270.209 169.131 271.563 168.454 273.028 168.072C274.505 167.678 275.958 167.482 277.386 167.482C278.297 167.482 279.343 167.592 280.525 167.814C281.719 168.023 282.87 168.46 283.978 169.125C285.098 169.79 286.028 170.793 286.767 172.135C287.505 173.477 287.875 175.274 287.875 177.527V196.214H283.517V192.374H283.295C283 192.989 282.507 193.648 281.818 194.349C281.128 195.051 280.211 195.648 279.066 196.141C277.921 196.633 276.524 196.879 274.875 196.879ZM275.539 192.964C277.263 192.964 278.715 192.626 279.897 191.949C281.091 191.272 281.99 190.398 282.593 189.327C283.209 188.256 283.517 187.129 283.517 185.947V181.959C283.332 182.18 282.926 182.383 282.298 182.568C281.682 182.741 280.968 182.894 280.156 183.03C279.356 183.153 278.574 183.264 277.811 183.362C277.06 183.448 276.45 183.522 275.982 183.584C274.85 183.732 273.791 183.972 272.806 184.304C271.834 184.624 271.046 185.11 270.443 185.763C269.852 186.403 269.556 187.277 269.556 188.385C269.556 189.899 270.116 191.044 271.237 191.82C272.369 192.583 273.804 192.964 275.539 192.964Z"/>
</mask>
<path d="M124.17 174.203L120.255 175.311C120.009 174.659 119.645 174.025 119.165 173.409C118.698 172.781 118.057 172.264 117.245 171.858C116.432 171.452 115.392 171.249 114.124 171.249C112.388 171.249 110.942 171.649 109.785 172.449C108.64 173.237 108.067 174.24 108.067 175.459C108.067 176.542 108.461 177.398 109.249 178.026C110.037 178.653 111.268 179.177 112.942 179.595L117.153 180.629C119.689 181.245 121.578 182.187 122.822 183.455C124.065 184.71 124.687 186.329 124.687 188.311C124.687 189.936 124.219 191.389 123.283 192.669C122.36 193.949 121.067 194.959 119.405 195.697C117.743 196.436 115.811 196.805 113.607 196.805C110.714 196.805 108.32 196.178 106.424 194.922C104.528 193.666 103.328 191.832 102.823 189.419L106.959 188.385C107.353 189.911 108.098 191.056 109.194 191.82C110.302 192.583 111.748 192.964 113.533 192.964C115.565 192.964 117.177 192.534 118.371 191.672C119.578 190.798 120.181 189.751 120.181 188.533C120.181 187.548 119.836 186.723 119.147 186.058C118.458 185.381 117.399 184.876 115.971 184.544L111.243 183.436C108.646 182.821 106.738 181.866 105.519 180.574C104.313 179.269 103.709 177.638 103.709 175.68C103.709 174.08 104.159 172.664 105.057 171.433C105.968 170.202 107.206 169.236 108.769 168.534C110.345 167.832 112.13 167.482 114.124 167.482C116.931 167.482 119.135 168.097 120.735 169.328C122.348 170.559 123.493 172.184 124.17 174.203ZM139.593 196.879C137.796 196.879 136.165 196.541 134.7 195.864C133.235 195.174 132.071 194.183 131.21 192.891C130.348 191.586 129.917 190.01 129.917 188.163C129.917 186.538 130.237 185.221 130.877 184.212C131.518 183.19 132.373 182.39 133.444 181.811C134.515 181.232 135.697 180.802 136.99 180.518C138.295 180.223 139.606 179.989 140.923 179.817C142.646 179.595 144.044 179.429 145.115 179.318C146.198 179.195 146.986 178.992 147.478 178.709C147.983 178.426 148.235 177.933 148.235 177.232V177.084C148.235 175.262 147.737 173.846 146.74 172.837C145.755 171.827 144.259 171.322 142.252 171.322C140.172 171.322 138.541 171.778 137.359 172.689C136.177 173.6 135.346 174.572 134.866 175.607L130.73 174.129C131.468 172.406 132.453 171.064 133.684 170.104C134.928 169.131 136.282 168.454 137.747 168.072C139.224 167.678 140.677 167.482 142.105 167.482C143.016 167.482 144.062 167.592 145.244 167.814C146.438 168.023 147.589 168.46 148.697 169.125C149.817 169.79 150.747 170.793 151.485 172.135C152.224 173.477 152.593 175.274 152.593 177.527V196.214H148.235V192.374H148.014C147.718 192.989 147.226 193.648 146.536 194.349C145.847 195.051 144.93 195.648 143.785 196.141C142.64 196.633 141.243 196.879 139.593 196.879ZM140.258 192.964C141.982 192.964 143.434 192.626 144.616 191.949C145.81 191.272 146.709 190.398 147.312 189.327C147.928 188.256 148.235 187.129 148.235 185.947V181.959C148.051 182.18 147.644 182.383 147.017 182.568C146.401 182.741 145.687 182.894 144.875 183.03C144.074 183.153 143.293 183.264 142.529 183.362C141.778 183.448 141.169 183.522 140.701 183.584C139.569 183.732 138.51 183.972 137.525 184.304C136.553 184.624 135.765 185.11 135.161 185.763C134.571 186.403 134.275 187.277 134.275 188.385C134.275 189.899 134.835 191.044 135.955 191.82C137.088 192.583 138.522 192.964 140.258 192.964ZM164.905 158.396V196.214H160.547V158.396H164.905ZM185.223 167.851V171.544H170.524V167.851H185.223ZM174.808 161.055H179.166V188.089C179.166 189.321 179.344 190.244 179.701 190.859C180.071 191.463 180.538 191.869 181.105 192.078C181.683 192.275 182.293 192.374 182.933 192.374C183.413 192.374 183.807 192.349 184.115 192.3C184.422 192.238 184.669 192.189 184.853 192.152L185.74 196.067C185.444 196.178 185.032 196.288 184.502 196.399C183.973 196.522 183.302 196.584 182.49 196.584C181.259 196.584 180.052 196.319 178.87 195.79C177.701 195.26 176.728 194.454 175.953 193.371C175.189 192.287 174.808 190.921 174.808 189.271V161.055ZM202.996 196.805C200.435 196.805 198.189 196.196 196.256 194.977C194.335 193.758 192.834 192.053 191.75 189.862C190.679 187.671 190.144 185.11 190.144 182.18C190.144 179.226 190.679 176.647 191.75 174.443C192.834 172.24 194.335 170.528 196.256 169.31C198.189 168.091 200.435 167.482 202.996 167.482C205.557 167.482 207.797 168.091 209.718 169.31C211.65 170.528 213.152 172.24 214.223 174.443C215.307 176.647 215.848 179.226 215.848 182.18C215.848 185.11 215.307 187.671 214.223 189.862C213.152 192.053 211.65 193.758 209.718 194.977C207.797 196.196 205.557 196.805 202.996 196.805ZM202.996 192.891C204.941 192.891 206.541 192.392 207.797 191.395C209.053 190.398 209.982 189.087 210.585 187.462C211.189 185.837 211.49 184.076 211.49 182.18C211.49 180.285 211.189 178.518 210.585 176.881C209.982 175.243 209.053 173.92 207.797 172.91C206.541 171.901 204.941 171.396 202.996 171.396C201.051 171.396 199.451 171.901 198.195 172.91C196.939 173.92 196.01 175.243 195.406 176.881C194.803 178.518 194.502 180.285 194.502 182.18C194.502 184.076 194.803 185.837 195.406 187.462C196.01 189.087 196.939 190.398 198.195 191.395C199.451 192.392 201.051 192.891 202.996 192.891ZM222.501 206.851V167.851H226.711V172.357H227.228C227.548 171.864 227.991 171.236 228.557 170.473C229.136 169.697 229.961 169.008 231.032 168.405C232.115 167.789 233.58 167.482 235.427 167.482C237.815 167.482 239.92 168.079 241.742 169.273C243.564 170.467 244.986 172.16 246.008 174.351C247.029 176.542 247.54 179.127 247.54 182.107C247.54 185.11 247.029 187.714 246.008 189.918C244.986 192.109 243.57 193.808 241.761 195.014C239.951 196.208 237.864 196.805 235.501 196.805C233.679 196.805 232.22 196.504 231.124 195.901C230.029 195.285 229.185 194.589 228.594 193.814C228.003 193.026 227.548 192.374 227.228 191.857H226.859V206.851H222.501ZM226.785 182.033C226.785 184.175 227.099 186.064 227.726 187.702C228.354 189.327 229.271 190.601 230.478 191.524C231.684 192.435 233.162 192.891 234.91 192.891C236.732 192.891 238.252 192.41 239.471 191.45C240.702 190.478 241.625 189.173 242.241 187.535C242.868 185.886 243.182 184.052 243.182 182.033C243.182 180.038 242.875 178.241 242.259 176.641C241.656 175.028 240.739 173.754 239.508 172.818C238.289 171.87 236.756 171.396 234.91 171.396C233.137 171.396 231.647 171.846 230.441 172.744C229.234 173.631 228.324 174.874 227.708 176.474C227.092 178.062 226.785 179.915 226.785 182.033ZM254.188 196.214V167.851H258.546V196.214H254.188ZM256.404 163.124C255.555 163.124 254.822 162.834 254.207 162.256C253.603 161.677 253.302 160.982 253.302 160.169C253.302 159.357 253.603 158.661 254.207 158.082C254.822 157.504 255.555 157.214 256.404 157.214C257.253 157.214 257.98 157.504 258.583 158.082C259.199 158.661 259.506 159.357 259.506 160.169C259.506 160.982 259.199 161.677 258.583 162.256C257.98 162.834 257.253 163.124 256.404 163.124ZM274.875 196.879C273.077 196.879 271.446 196.541 269.981 195.864C268.516 195.174 267.353 194.183 266.491 192.891C265.629 191.586 265.198 190.01 265.198 188.163C265.198 186.538 265.518 185.221 266.159 184.212C266.799 183.19 267.654 182.39 268.725 181.811C269.796 181.232 270.978 180.802 272.271 180.518C273.576 180.223 274.887 179.989 276.204 179.817C277.928 179.595 279.325 179.429 280.396 179.318C281.479 179.195 282.267 178.992 282.759 178.709C283.264 178.426 283.517 177.933 283.517 177.232V177.084C283.517 175.262 283.018 173.846 282.021 172.837C281.036 171.827 279.54 171.322 277.534 171.322C275.453 171.322 273.822 171.778 272.64 172.689C271.458 173.6 270.627 174.572 270.147 175.607L266.011 174.129C266.75 172.406 267.734 171.064 268.965 170.104C270.209 169.131 271.563 168.454 273.028 168.072C274.505 167.678 275.958 167.482 277.386 167.482C278.297 167.482 279.343 167.592 280.525 167.814C281.719 168.023 282.87 168.46 283.978 169.125C285.098 169.79 286.028 170.793 286.767 172.135C287.505 173.477 287.875 175.274 287.875 177.527V196.214H283.517V192.374H283.295C283 192.989 282.507 193.648 281.818 194.349C281.128 195.051 280.211 195.648 279.066 196.141C277.921 196.633 276.524 196.879 274.875 196.879ZM275.539 192.964C277.263 192.964 278.715 192.626 279.897 191.949C281.091 191.272 281.99 190.398 282.593 189.327C283.209 188.256 283.517 187.129 283.517 185.947V181.959C283.332 182.18 282.926 182.383 282.298 182.568C281.682 182.741 280.968 182.894 280.156 183.03C279.356 183.153 278.574 183.264 277.811 183.362C277.06 183.448 276.45 183.522 275.982 183.584C274.85 183.732 273.791 183.972 272.806 184.304C271.834 184.624 271.046 185.11 270.443 185.763C269.852 186.403 269.556 187.277 269.556 188.385C269.556 189.899 270.116 191.044 271.237 191.82C272.369 192.583 273.804 192.964 275.539 192.964Z" stroke="#D9D9D9" stroke-width="2" mask="url(#path-12-outside-1_1_28)"/>
</g>
</g>
<defs>
<radialGradient id="paint0_radial_1_28" cx="0" cy="0" r="1" gradientUnits="userSpaceOnUse" gradientTransform="translate(193.67 115.64) rotate(-26.2287) scale(81.9669 81.9669)">
<stop offset="0.269387" stop-color="#F6DFA4"/>
<stop offset="0.90185" stop-color="white"/>
</radialGradient>
</defs>
</svg>
